<svg xmlns="http://www.w3.org/2000/svg" viewBox="0 0 900 700">
  <defs>
    <linearGradient id="bg" x1="0" y1="0" x2="1" y2="1">
      <stop offset="0%" stop-color="#7c4dff"/>
      <stop offset="100%" stop-color="#101010"/>
    </linearGradient>
    <radialGradient id="glow" cx="35%" cy="25%" r="70%">
      <stop offset="0%" stop-color="#ffffff" stop-opacity="0.35"/>
      <stop offset="100%" stop-color="#ffffff" stop-opacity="0"/>
    </radialGradient>
  </defs>
  <rect width="900" height="700" rx="42" fill="url(#bg)"/>
  <circle cx="180" cy="130" r="150" fill="url(#glow)"/>
  <circle cx="780" cy="110" r="220" fill="#ffffff" opacity="0.07"/>
  <circle cx="740" cy="560" r="180" fill="#000000" opacity="0.12"/>
  <g transform="translate(120 170) scale(1.03)">
    <path d="M95 260 C145 208, 219 184, 298 195 L450 216 C493 222, 531 248, 552 288 L567 318 C571 327, 566 338, 556 342 L165 342 C118 342, 84 309, 84 262 C84 259, 89 255, 95 260 Z" fill="#ffffff" opacity="0.96"/>
    <path d="M195 240 L300 260 L330 314 L228 314 Z" fill="#111827" opacity="0.88"/>
    <path d="M327 258 L418 274 L448 318 L350 318 Z" fill="#111827" opacity="0.88"/>
    <path d="M120 326 L560 326" stroke="#111827" stroke-width="16" stroke-linecap="round" opacity="0.9"/>
    <path d="M245 170 C259 135, 285 110, 321 92 L457 92 C488 92, 513 108, 528 134 L540 158 L450 150 C387 145, 323 147, 265 165 Z" fill="#ffffff" opacity="0.86"/>
    <path d="M250 178 C317 160, 386 158, 460 166" stroke="#111827" stroke-width="12" stroke-linecap="round" opacity="0.86"/>
    <path d="M252 210 C315 192, 382 192, 448 200" stroke="#111827" stroke-width="12" stroke-linecap="round" opacity="0.72"/>
  </g>
  <text x="70" y="610" font-family="Arial, Helvetica, sans-serif" font-size="66" font-weight="800" fill="#ffffff" opacity="0.95">RS-X</text>
  <text x="72" y="660" font-family="Arial, Helvetica, sans-serif" font-size="28" font-weight="600" fill="#ffffff" opacity="0.75">Performance • Lifestyle • Comfort</text>
</svg>
