<svg xmlns="http://www.w3.org/2000/svg" viewBox="0 0 900 650">
  <defs>
    <linearGradient id="g" x1="0" y1="0" x2="1" y2="1">
      <stop offset="0%" stop-color="#ff7b52"/>
      <stop offset="100%" stop-color="#ffffff"/>
    </linearGradient>
  </defs>
  <rect width="900" height="650" rx="40" fill="#0e0e0e"/>
  <circle cx="240" cy="140" r="170" fill="#ffffff" opacity=".08"/>
  <circle cx="720" cy="120" r="220" fill="#ff5a2a" opacity=".16"/>
  <g transform="translate(105 165)">
    <path d="M130 310c110-68 204-112 286-129 20-4 49 2 72 17l45 29c19 12 30 33 30 55v56H124c-22 0-30-19-12-28z" fill="url(#g)"/>
    <path d="M182 205c87-23 172-17 255 18" stroke="#0e0e0e" stroke-width="18" stroke-linecap="round" opacity=".8"/>
    <path d="M214 232c70-16 139-10 206 16" stroke="#0e0e0e" stroke-width="14" stroke-linecap="round" opacity=".6"/>
    <path d="M152 360h474" stroke="#0e0e0e" stroke-width="18" stroke-linecap="round" opacity=".85"/>
  </g>
  <text x="70" y="560" font-size="72" font-family="Arial" font-weight="900" fill="#ffffff">RUN DIFFERENT.</text>
  <text x="72" y="612" font-size="26" font-family="Arial" fill="#ffffff" opacity=".75">Nike-inspired premium store UI</text>
</svg>
